<svg width="26" height="26" viewBox="0 0 26 26" fill="none" xmlns="http://www.w3.org/2000/svg">
<path d="M21.09 21.8335L14.3121 15.0497C13.7709 15.5112 13.1485 15.8683 12.445 16.1211C11.7414 16.3739 11.0342 16.5003 10.3235 16.5003C8.59019 16.5003 7.12319 15.8997 5.92245 14.6987C4.72172 13.4969 4.12135 12.029 4.12135 10.2949C4.12135 8.56088 4.72099 7.09224 5.92029 5.88902C7.1203 4.68507 8.58659 4.0831 10.3191 4.0831C12.0524 4.0831 13.5201 4.68399 14.7223 5.88577C15.9245 7.08755 16.5256 8.55618 16.5256 10.2917C16.5256 11.0442 16.3925 11.7726 16.1262 12.4768C15.8592 13.1809 15.5092 13.7833 15.0763 14.2838L21.8542 21.0665L21.089 21.8335H21.09ZM10.3235 15.4159C11.7594 15.4159 12.9721 14.9211 13.9614 13.9317C14.95 12.9422 15.4443 11.7285 15.4443 10.2906C15.4443 8.85338 14.95 7.64005 13.9614 6.6506C12.9728 5.66116 11.7605 5.16643 10.3246 5.16643C8.88857 5.16643 7.67593 5.66116 6.68662 6.6506C5.69804 7.64005 5.20374 8.85338 5.20374 10.2906C5.20374 11.7278 5.69804 12.9412 6.68662 13.9306C7.67521 14.92 8.88749 15.4159 10.3235 15.4159Z" fill="#C4C4C4"/>
</svg>
